<?xml version="1.0" standalone="no"?><!DOCTYPE svg PUBLIC "-//W3C//DTD SVG 1.1//EN" "http://www.w3.org/Graphics/SVG/1.1/DTD/svg11.dtd"><svg t="1650034381380" class="icon" viewBox="0 0 1024 1024" version="1.1" xmlns="http://www.w3.org/2000/svg" p-id="4711" xmlns:xlink="http://www.w3.org/1999/xlink" width="128" height="128"><defs><style type="text/css"></style></defs><path d="M270.235858 1023.938639v-556.548418c20.61745-116.586769 123.336529-199.792905 237.223394-196.356664 106.216683 3.313519 198.933845 81.488015 220.901247 189.05465l3.558964 563.666347z" opacity=".2" p-id="4712"></path><path d="M363.443912 532.924257m-114.623203 0a114.623202 114.623202 0 1 0 229.246405 0 114.623202 114.623202 0 1 0-229.246405 0Z" opacity=".2" p-id="4713"></path><path d="M636.379674 532.924257m-114.623202 0a114.623202 114.623202 0 1 0 229.246404 0 114.623202 114.623202 0 1 0-229.246404 0Z" opacity=".2" p-id="4714"></path><path d="M363.934803 532.556088m-61.545541 0a61.545542 61.545542 0 1 0 123.091083 0 61.545542 61.545542 0 1 0-123.091083 0Z" opacity=".2" p-id="4715"></path><path d="M638.588686 532.556088m-61.545541 0a61.545542 61.545542 0 1 0 123.091083 0 61.545542 61.545542 0 1 0-123.091083 0Z" opacity=".2" p-id="4716"></path><path d="M396.026846 503.102589m-16.935763 0a16.935762 16.935762 0 1 0 33.871525 0 16.935762 16.935762 0 1 0-33.871525 0Z" opacity=".2" p-id="4717"></path><path d="M606.496644 503.102589m-16.935762 0a16.935762 16.935762 0 1 0 33.871525 0 16.935762 16.935762 0 1 0-33.871525 0Z" opacity=".2" p-id="4718"></path><path d="M672.030681 213.721956m-48.598274 0a48.598274 48.598274 0 1 0 97.196548 0 48.598274 48.598274 0 1 0-97.196548 0Z" opacity=".2" p-id="4719"></path><path d="M920.42186 339.022052m-53.507191 0a53.507191 53.507191 0 1 0 107.014382 0 53.507191 53.507191 0 1 0-107.014382 0Z" opacity=".2" p-id="4720"></path><path d="M227.466922 178.009588m-61.545541 0a61.545542 61.545542 0 1 0 123.091083 0 61.545542 61.545542 0 1 0-123.091083 0Z" opacity=".2" p-id="4721"></path><path d="M93.637584 540.594439m-37.430489 0a37.430489 37.430489 0 1 0 74.860978 0 37.430489 37.430489 0 1 0-74.860978 0Z" opacity=".2" p-id="4722"></path><path d="M227.466922 729.649089m-38.780441 0a38.780441 38.780441 0 1 0 77.560882 0 38.780441 38.780441 0 1 0-77.560882 0Z" opacity=".2" p-id="4723"></path><path d="M501.261745 47.616491m-41.480345 0a41.480345 41.480345 0 1 0 82.96069 0 41.480345 41.480345 0 1 0-82.96069 0Z" opacity=".2" p-id="4724"></path><path d="M866.914669 621.162033m-38.780441 0a38.780441 38.780441 0 1 0 77.560882 0 38.780441 38.780441 0 1 0-77.560882 0Z" opacity=".2" p-id="4725"></path><path d="M264.099712 1017.802493v-556.548418c20.61745-116.586769 123.336529-199.792905 237.223394-196.356664 106.216683 3.313519 198.933845 81.488015 220.901247 189.05465l3.558964 563.666347z" fill="#FF5758" p-id="4726"></path><path d="M357.307766 526.788111m-114.623202 0a114.623202 114.623202 0 1 0 229.246404 0 114.623202 114.623202 0 1 0-229.246404 0Z" fill="#FFFFFF" p-id="4727"></path><path d="M630.243528 526.788111m-114.623202 0a114.623202 114.623202 0 1 0 229.246405 0 114.623202 114.623202 0 1 0-229.246405 0Z" fill="#FFFFFF" p-id="4728"></path><path d="M357.798658 526.419942m-61.545542 0a61.545542 61.545542 0 1 0 123.091083 0 61.545542 61.545542 0 1 0-123.091083 0Z" p-id="4729"></path><path d="M632.452541 526.419942m-61.545542 0a61.545542 61.545542 0 1 0 123.091083 0 61.545542 61.545542 0 1 0-123.091083 0Z" p-id="4730"></path><path d="M389.8907 496.966443m-16.935762 0a16.935762 16.935762 0 1 0 33.871524 0 16.935762 16.935762 0 1 0-33.871524 0Z" fill="#FFFFFF" p-id="4731"></path><path d="M600.360499 496.966443m-16.935763 0a16.935762 16.935762 0 1 0 33.871525 0 16.935762 16.935762 0 1 0-33.871525 0Z" fill="#FFFFFF" p-id="4732"></path><path d="M665.894535 207.58581m-48.598274 0a48.598274 48.598274 0 1 0 97.196548 0 48.598274 48.598274 0 1 0-97.196548 0Z" fill="#F1D31E" p-id="4733"></path><path d="M914.285714 332.885906m-53.507191 0a53.507191 53.507191 0 1 0 107.014382 0 53.507191 53.507191 0 1 0-107.014382 0Z" fill="#00C9FF" p-id="4734"></path><path d="M221.330777 171.873442m-61.545542 0a61.545542 61.545542 0 1 0 123.091083 0 61.545542 61.545542 0 1 0-123.091083 0Z" fill="#C700F6" p-id="4735"></path><path d="M87.501438 534.458293m-37.430489 0a37.430489 37.430489 0 1 0 74.860978 0 37.430489 37.430489 0 1 0-74.860978 0Z" fill="#69C66D" p-id="4736"></path><path d="M221.330777 723.512943m-38.780441 0a38.780441 38.780441 0 1 0 77.560882 0 38.780441 38.780441 0 1 0-77.560882 0Z" fill="#F1D323" p-id="4737"></path><path d="M495.125599 41.480345m-41.480345 0a41.480345 41.480345 0 1 0 82.96069 0 41.480345 41.480345 0 1 0-82.96069 0Z" fill="#00C9FF" p-id="4738"></path><path d="M860.778523 615.025887m-38.780441 0a38.780441 38.780441 0 1 0 77.560883 0 38.780441 38.780441 0 1 0-77.560883 0Z" fill="#C700F6" p-id="4739"></path></svg>